<svg width="25" height="24" viewBox="0 0 25 24" fill="none" xmlns="http://www.w3.org/2000/svg">
<path d="M21.4137 8.58003V15.42C21.4137 16.54 20.8137 17.58 19.8437 18.15L13.9037 21.58C12.9337 22.14 11.7337 22.14 10.7537 21.58L4.81365 18.15C3.84365 17.59 3.24365 16.55 3.24365 15.42V8.58003C3.24365 7.46003 3.84365 6.41999 4.81365 5.84999L10.7537 2.42C11.7237 1.86 12.9237 1.86 13.9037 2.42L19.8437 5.84999C20.8137 6.41999 21.4137 7.45003 21.4137 8.58003Z" stroke="#667085" stroke-width="1.5" stroke-linecap="round" stroke-linejoin="round"/>
<path d="M12.3334 11.0001C13.6202 11.0001 14.6634 9.95687 14.6634 8.67004C14.6634 7.38322 13.6202 6.34009 12.3334 6.34009C11.0466 6.34009 10.0034 7.38322 10.0034 8.67004C10.0034 9.95687 11.0466 11.0001 12.3334 11.0001Z" stroke="#667085" stroke-width="1.5" stroke-linecap="round" stroke-linejoin="round"/>
<path d="M16.3335 16.6601C16.3335 14.8601 14.5435 13.4001 12.3335 13.4001C10.1235 13.4001 8.3335 14.8601 8.3335 16.6601" stroke="#667085" stroke-width="1.5" stroke-linecap="round" stroke-linejoin="round"/>
</svg>
